<svg width="102" height="58" viewBox="0 0 102 58" fill="none" xmlns="http://www.w3.org/2000/svg">
<path d="M96.1367 0.031146C96.9525 -0.00137848 97.3874 -0.0499395 98.1887 0.13334C99.297 1.59584 98.8143 3.51829 98.6523 5.20759C98.3493 8.36927 97.0433 10.6218 95.2354 13.1047C106.936 21.2362 100.165 47.3962 89.471 54.1685C87.9163 55.1533 83.7417 57.3342 82.1049 57.0309C80.7327 55.7011 81.5978 55.0445 82.9201 54.6333C86.7242 53.4508 89.3904 51.6013 92.0601 48.6625C96.2841 43.3871 98.2208 36.3821 98.872 29.7405C99.3119 25.2539 99.0803 20.5631 96.0795 16.8713C94.3296 14.7184 91.567 13.5281 88.8453 13.2904C84.4819 12.9091 81.9606 15.2051 78.909 17.813C78.3636 17.3895 77.7361 16.7854 77.2134 16.3088C82.3117 11.4971 85.9387 9.61135 93.0216 11.9544C96.5924 8.10732 96.8477 4.96387 96.1367 0.031146Z" fill="white"/>
<path d="M11.7036 44.8911C12.2859 45.3715 12.7534 46.062 13.2179 46.6714C9.59269 49.4226 8.99203 48.7807 4.65467 47.826C3.78548 47.6348 2.71809 48.4005 2.77814 49.4375C4.71993 49.6986 5.17331 49.6019 6.73871 50.7906C11.2455 50.213 13.2972 49.7155 17.0568 47.0601C17.6162 47.5463 18.1982 48.1082 18.746 48.6163C14.5512 52.0201 11.0099 52.8009 5.73871 53.1213C3.42306 50.7431 1.53022 52.5335 2.45551 54.4302C2.59867 54.5239 2.77196 54.6372 2.97539 54.7704C8.29343 54.6199 16.9309 54.7746 21.8907 54.2502C27.204 53.538 30.147 52.8534 34.9794 50.6679C35.4762 51.2118 36.0097 51.8681 36.4942 52.4355C27.3907 57.7596 11.387 56.9823 0.740043 57.1245C-0.394339 54.3421 0.0840051 54.0551 0.193781 51.2393C0.43559 45.0366 3.83019 44.3848 8.90102 46.7347C9.89888 46.2244 10.7917 45.544 11.7036 44.8911Z" fill="white"/>
<path d="M73.8147 35.1582C74.3497 35.2323 74.4273 35.4147 74.6433 35.854C74.3853 38.0724 71.6664 38.2601 70.4971 40.3821C68.5808 43.8583 70.9196 46.2207 72.2349 49.2176C72.8259 50.5647 69.1321 51.3661 69.4107 53.6231C71.0029 56.4169 73.3786 54.5421 75.3875 55.6095C75.8927 56.3863 75.7011 56.4716 75.6703 57.5922C73.5324 57.6254 71.2859 57.7765 69.3756 56.6705C65.5807 54.4731 66.8046 51.5464 69.5503 49.2165C66.0599 43.5882 67.1664 37.4281 73.8147 35.1582Z" fill="white"/>
<path d="M51.5103 13.7964L51.7816 14.1838C51.9152 15.4314 52.7223 21.2594 52.2301 21.9396C51.4463 22.0088 51.2378 22.0532 50.4554 21.8152C49.9603 21.1126 50.0658 20.3797 49.9924 19.4163C48.876 20.6841 47.5559 22.4863 46.4979 23.8517L46.361 24.0058C45.6405 24.3156 44.1589 24.1825 43.3037 24.1629C45.7622 20.9243 48.8841 16.8352 51.5103 13.7964Z" fill="white"/>
<path d="M31.0269 13.7856C31.44 14.5322 32.2169 21.3762 31.7056 21.917C31.0196 21.9842 30.4686 22.1291 29.8902 21.813C29.4673 21.1586 29.5552 20.1011 29.5407 19.2753L26.0738 23.8386L25.8982 24.0432C25.1756 24.3194 23.7047 24.1913 22.8708 24.1656C25.1938 21.0325 28.5099 16.6992 31.0269 13.7856Z" fill="white"/>
<path d="M21.736 39.6778L17.0453 39.2177L16.8767 40.9365L15.1317 40.7653L15.4477 37.5442L16.189 37.6169C16.3961 37.306 16.5741 36.9769 16.723 36.6294C16.8767 36.278 17.0065 35.922 17.1126 35.5615C17.2186 35.201 17.304 34.8473 17.369 34.5004C17.4343 34.1492 17.4888 33.8189 17.5324 33.5097C17.576 33.2004 17.6078 32.921 17.6279 32.6712C17.6523 32.422 17.6745 32.2188 17.6943 32.0618L23.2837 32.6101L22.7296 38.2585L23.6284 38.3466L23.3124 41.5678L21.5674 41.3966L21.736 39.6778ZM18.4103 37.1195C18.3067 37.3654 18.1873 37.5921 18.0521 37.7997L20.8796 38.077L21.2857 33.9375L19.1601 33.729C19.1473 33.8602 19.1292 34.0218 19.1059 34.2138C19.0871 34.4062 19.0573 34.6197 19.0166 34.8541C18.9808 35.0846 18.9347 35.3296 18.8783 35.589C18.8263 35.8488 18.759 36.1072 18.6764 36.364C18.5982 36.6213 18.5095 36.8731 18.4103 37.1195Z" fill="white"/>
<path d="M25.9756 39.8707C25.5294 39.667 25.1515 39.3909 24.8419 39.0422C24.5367 38.6937 24.306 38.2839 24.1499 37.8127C23.9982 37.3417 23.9314 36.8295 23.9494 36.276C23.9675 35.7226 24.0676 35.2159 24.2497 34.7557C24.4362 34.2958 24.693 33.904 25.0201 33.5805C25.3518 33.2528 25.7469 33.0019 26.2055 32.8278C26.664 32.6537 27.1766 32.5759 27.7432 32.5944C28.3186 32.6131 28.8294 32.7243 29.2756 32.928C29.7262 33.1317 30.1019 33.4078 30.4027 33.7562C30.7081 34.1003 30.9366 34.5079 31.0883 34.9789C31.24 35.4499 31.3069 35.9622 31.2888 36.5156C31.2707 37.069 31.1707 37.5758 30.9886 38.0359C30.8065 38.496 30.5518 38.89 30.2245 39.2179C29.9016 39.5459 29.5087 39.7969 29.0458 39.9709C28.5872 40.145 28.0702 40.2226 27.4948 40.2038C26.9283 40.1853 26.4218 40.0743 25.9756 39.8707ZM25.959 37.1463C26.0074 37.416 26.0962 37.6586 26.2254 37.8738C26.3549 38.0847 26.5273 38.2574 26.7428 38.392C26.9582 38.5265 27.2263 38.599 27.5469 38.6095C27.8807 38.6204 28.1594 38.5679 28.383 38.4521C28.6112 38.332 28.7944 38.1731 28.9328 37.9754C29.0713 37.7733 29.1712 37.5413 29.2325 37.2795C29.2984 37.0134 29.3359 36.7376 29.3453 36.4521C29.3544 36.171 29.3348 35.8956 29.2865 35.6258C29.2425 35.3562 29.158 35.1182 29.0328 34.9118C28.9078 34.7011 28.7352 34.5306 28.5153 34.4003C28.2998 34.2658 28.0252 34.193 27.6914 34.1821C27.3707 34.1717 27.0985 34.2265 26.8748 34.3468C26.651 34.467 26.4676 34.6303 26.3246 34.8366C26.1817 35.0386 26.0751 35.2726 26.0049 35.5385C25.9392 35.8002 25.9019 36.0672 25.893 36.3395C25.8841 36.6118 25.9061 36.8807 25.959 37.1463Z" fill="white"/>
<path d="M36.3814 30.1901C36.4786 30.1267 36.5384 30.0634 36.5608 30.0003L38.2449 29.8926C38.2728 30.2607 38.2286 30.5674 38.1121 30.8126C37.9954 31.0535 37.8321 31.2533 37.6221 31.412C37.4161 31.5661 37.1727 31.6852 36.8919 31.7692C36.6151 31.8485 36.3284 31.9087 36.0315 31.9497C35.8265 31.9804 35.6157 32.0225 35.3989 32.076C35.1819 32.1251 34.9706 32.1959 34.7652 32.2883C34.5594 32.3763 34.3663 32.4899 34.1859 32.6292C34.0052 32.764 33.8461 32.9283 33.7088 33.1221C33.5715 33.3158 33.4627 33.5429 33.3825 33.8035C33.3023 34.064 33.2621 34.366 33.2621 34.7095C33.3177 34.4769 33.4158 34.2549 33.5564 34.0433C33.6967 33.8274 33.8761 33.6376 34.0946 33.4739C34.3172 33.3055 34.577 33.1678 34.874 33.0608C35.1707 32.9493 35.5033 32.8818 35.8717 32.8582C36.3629 32.8268 36.8111 32.8818 37.2165 33.0232C37.6216 33.1603 37.9718 33.3691 38.2672 33.6496C38.5625 33.9301 38.796 34.2763 38.9677 34.6881C39.1437 35.0995 39.2481 35.5618 39.2809 36.0749C39.3174 36.6451 39.265 37.168 39.1237 37.6438C38.9868 38.1194 38.7711 38.5339 38.4766 38.8874C38.1863 39.2362 37.8211 39.5172 37.3812 39.7303C36.941 39.939 36.438 40.0614 35.8723 40.0976C35.0478 40.1503 34.355 40.0251 33.794 39.7219C33.233 39.4187 32.7834 38.8948 32.4451 38.1502C32.3321 37.8976 32.24 37.6283 32.1689 37.3422C32.0977 37.0562 32.0409 36.7868 31.9983 36.5341C31.9601 36.2811 31.9328 36.0605 31.9163 35.8722C31.8999 35.6839 31.8897 35.5591 31.8858 35.4977C31.842 34.8135 31.881 34.1835 32.0027 33.6077C32.1241 33.0275 32.3424 32.5159 32.6575 32.073C32.9771 31.6298 33.3983 31.2616 33.9212 30.9684C34.4484 30.6749 35.0957 30.4683 35.8631 30.3488C36.1073 30.3112 36.2801 30.2583 36.3814 30.1901ZM35.5653 34.2649C35.2452 34.2854 34.9746 34.3578 34.7535 34.482C34.5366 34.6015 34.3617 34.7581 34.2287 34.9515C34.0958 35.145 34.0043 35.3666 33.9542 35.6164C33.9038 35.8618 33.8874 36.1204 33.9047 36.3924C33.9221 36.6643 33.9679 36.9321 34.042 37.196C34.1202 37.4552 34.2341 37.6857 34.3835 37.8876C34.5326 38.085 34.7209 38.2403 34.9483 38.3534C35.1757 38.4666 35.4495 38.5129 35.7696 38.4925C36.1073 38.4709 36.3819 38.3917 36.5933 38.2548C36.8088 38.1133 36.9759 37.9375 37.0946 37.7274C37.213 37.5128 37.2901 37.2723 37.3259 37.0058C37.3614 36.7349 37.37 36.457 37.3518 36.1719C37.3339 35.8912 37.2863 35.6301 37.2092 35.3884C37.1321 35.1467 37.022 34.9402 36.879 34.7688C36.7356 34.593 36.5555 34.4614 36.3385 34.374C36.1213 34.2822 35.8635 34.2459 35.5653 34.2649Z" fill="white"/>
<path d="M42.2949 31.9441C42.4443 31.8127 42.6159 31.7039 42.8098 31.6177C43.0079 31.5307 43.2365 31.4625 43.4955 31.4131C43.7113 31.372 43.9386 31.3555 44.1772 31.3636C44.4159 31.3718 44.6543 31.4136 44.8923 31.489C45.1339 31.5592 45.3695 31.6687 45.5992 31.8172C45.828 31.9615 46.0413 32.1534 46.2391 32.3931C46.4369 32.6327 46.6132 32.9235 46.7678 33.2653C46.9216 33.6028 47.0422 34.0003 47.1295 34.4579C47.2381 35.0277 47.2751 35.562 47.2405 36.0607C47.2102 36.5586 47.1024 37.0019 46.917 37.3907C46.736 37.7786 46.4737 38.1038 46.13 38.3662C45.7907 38.6277 45.3663 38.8071 44.857 38.9042C44.68 38.938 44.4975 38.9549 44.3096 38.9549C44.1218 38.955 43.9337 38.9304 43.7453 38.8813C43.557 38.8323 43.372 38.7535 43.1903 38.645C43.012 38.5313 42.8444 38.3799 42.6875 38.1906L42.6616 38.1955L43.3494 41.8021L41.517 42.1516L39.6499 32.3612L41.3982 32.0278L41.5909 33.0379L41.6168 33.033C41.7016 32.7976 41.7987 32.5912 41.908 32.4138C42.0165 32.232 42.1455 32.0755 42.2949 31.9441ZM43.0012 37.2315C43.14 37.3258 43.2984 37.3941 43.4765 37.4362C43.6537 37.4739 43.8545 37.4714 44.079 37.4286C44.3034 37.3858 44.4911 37.3142 44.642 37.2139C44.792 37.1092 44.9142 36.9875 45.0085 36.8487C45.1028 36.7099 45.1723 36.558 45.2169 36.3929C45.2658 36.227 45.2966 36.0601 45.3093 35.8922C45.3211 35.7199 45.3187 35.5548 45.3021 35.3969C45.2889 35.2339 45.2695 35.0855 45.244 34.9517C45.1971 34.7056 45.1217 34.4628 45.0178 34.2231C44.914 33.9834 44.7805 33.7763 44.6174 33.6016C44.4587 33.426 44.266 33.295 44.0392 33.2085C43.8124 33.122 43.5544 33.1064 43.2652 33.1615C42.9717 33.2175 42.7354 33.3274 42.5564 33.4913C42.3817 33.6544 42.2507 33.8471 42.1634 34.0696C42.0804 34.2912 42.0347 34.5325 42.0263 34.7936C42.0179 35.0547 42.0372 35.3082 42.0841 35.5543C42.1097 35.6881 42.1441 35.8336 42.1875 35.9909C42.2344 36.143 42.2951 36.297 42.3696 36.4528C42.4432 36.6042 42.5311 36.7485 42.6333 36.8856C42.7398 37.0219 42.8625 37.1372 43.0012 37.2315Z" fill="white"/>
<path d="M50.8114 37.1161C50.3224 37.0774 49.8729 36.9472 49.4627 36.7255C49.0567 36.5024 48.6997 36.1962 48.3919 35.8068C48.0882 35.4161 47.8502 34.9577 47.6779 34.4315C47.5055 33.9052 47.4262 33.3948 47.4399 32.9002C47.4578 32.4041 47.5651 31.9482 47.7619 31.5323C47.9614 31.1109 48.2469 30.74 48.6182 30.4195C48.9896 30.099 49.4446 29.8506 49.9834 29.6742C50.5304 29.495 51.0485 29.4247 51.5374 29.4634C52.0306 29.5008 52.4781 29.6317 52.8799 29.8561C53.2845 30.0751 53.6387 30.3799 53.9424 30.7706C54.2461 31.1613 54.4841 31.6198 54.6564 32.146C54.8287 32.6722 54.908 33.1826 54.8943 33.6773C54.8806 34.1719 54.7761 34.6293 54.5807 35.0493C54.3895 35.468 54.1061 35.8383 53.7306 36.1601C53.3593 36.4805 52.9001 36.7304 52.353 36.9095C51.8142 37.086 51.3004 37.1548 50.8114 37.1161ZM49.8639 34.5618C50.0016 34.7987 50.168 34.9963 50.3631 35.1543C50.5569 35.3082 50.778 35.4115 51.0265 35.4642C51.2749 35.517 51.5516 35.4934 51.8565 35.3936C52.1739 35.2896 52.4178 35.145 52.5883 34.9596C52.7617 34.7688 52.8795 34.5568 52.9419 34.3236C53.0029 34.0863 53.0174 33.8342 52.9855 33.5672C52.9563 33.2946 52.8973 33.0226 52.8084 32.7512C52.7209 32.4839 52.6082 32.2318 52.4705 31.9948C52.337 31.7565 52.1761 31.5618 51.9879 31.4107C51.7983 31.2554 51.5779 31.1542 51.3266 31.107C51.0781 31.0543 50.7952 31.0799 50.4778 31.1839C50.1729 31.2837 49.9359 31.4284 49.7668 31.6179C49.5976 31.8074 49.4811 32.0236 49.4173 32.2664C49.3521 32.5051 49.332 32.7614 49.357 33.0353C49.3848 33.3037 49.4411 33.5673 49.5259 33.8262C49.6107 34.0852 49.7233 34.3303 49.8639 34.5618Z" fill="white"/>
<path d="M63.6738 32.0405L61.4536 33.0341L58.2896 31.1281L57.9134 32.1269L58.8424 34.2027L57.1396 34.9648L54.2046 28.4065L55.9073 27.6445L57.0221 30.1354L58.3622 26.5459L60.6245 25.5334L59.1367 29.4707L63.6738 32.0405Z" fill="white"/>
<path d="M65.6825 30.8409C65.1944 30.8893 64.7289 30.8406 64.286 30.6949C63.8469 30.5471 63.4415 30.3088 63.0696 29.98C62.7017 29.6491 62.3864 29.2399 62.1237 28.7525C61.8611 28.265 61.6928 27.7766 61.6188 27.2874C61.5488 26.796 61.5738 26.3282 61.6939 25.8841C61.8158 25.4341 62.0312 25.0185 62.34 24.6375C62.6489 24.2564 63.0528 23.9314 63.5519 23.6625C64.0587 23.3895 64.5562 23.2288 65.0443 23.1804C65.5362 23.13 65.9998 23.1797 66.435 23.3296C66.872 23.4735 67.2744 23.711 67.6424 24.0418C68.0104 24.3727 68.3257 24.7819 68.5883 25.2693C68.851 25.7568 69.0193 26.2451 69.0932 26.7344C69.1671 27.2237 69.1451 27.6924 69.0271 28.1403C68.9129 28.5862 68.6994 29.0007 68.3867 29.3839C68.0779 29.7649 67.6701 30.092 67.1633 30.3651C66.6642 30.634 66.1706 30.7926 65.6825 30.8409ZM64.2983 28.4943C64.4758 28.7032 64.6745 28.8682 64.8945 28.9893C65.1124 29.1065 65.3483 29.1691 65.6021 29.177C65.856 29.185 66.1242 29.1129 66.4066 28.9607C66.7006 28.8023 66.9152 28.6168 67.0502 28.4043C67.1871 28.1858 67.2656 27.9563 67.2858 27.7158C67.3039 27.4714 67.2736 27.2207 67.1949 26.9635C67.1181 26.7004 67.0119 26.4432 66.8764 26.1917C66.743 25.9441 66.5876 25.7159 66.4101 25.507C66.2366 25.296 66.0438 25.1328 65.8319 25.0174C65.6178 24.8981 65.383 24.8374 65.1273 24.8354C64.8734 24.8274 64.5995 24.9027 64.3054 25.0611C64.023 25.2132 63.8153 25.3975 63.6823 25.6139C63.5494 25.8304 63.4729 26.0637 63.4531 26.314C63.4311 26.5605 63.4566 26.8163 63.5296 27.0815C63.6044 27.3407 63.7064 27.5902 63.8356 27.8301C63.9649 28.07 64.1191 28.2914 64.2983 28.4943Z" fill="white"/>
<path d="M72.5343 18.6979L73.3138 19.9983L71.4481 21.1168L74.3628 25.979L72.7685 26.9347L69.8537 22.0725L67.988 23.191L67.2084 21.8906L72.5343 18.6979Z" fill="white"/>
</svg>
