<svg width="102" height="58" viewBox="0 0 102 58" fill="none" xmlns="http://www.w3.org/2000/svg">
<path d="M96.1369 0.031146C96.9528 -0.00137848 97.3876 -0.0499395 98.1889 0.13334C99.2972 1.59584 98.8145 3.51829 98.6526 5.20759C98.3496 8.36927 97.0435 10.6218 95.2356 13.1047C106.936 21.2362 100.165 47.3962 89.4713 54.1685C87.9165 55.1533 83.7419 57.3342 82.1052 57.0309C80.733 55.7011 81.5981 55.0445 82.9204 54.6333C86.7245 53.4508 89.3906 51.6013 92.0603 48.6625C96.2844 43.3871 98.221 36.3821 98.8723 29.7405C99.3122 25.2539 99.0806 20.5631 96.0798 16.8713C94.3299 14.7184 91.5673 13.5281 88.8455 13.2904C84.4822 12.9091 81.9608 15.2051 78.9093 17.813C78.3639 17.3895 77.7364 16.7854 77.2136 16.3088C82.3119 11.4971 85.939 9.61135 93.0219 11.9544C96.5926 8.10732 96.848 4.96387 96.1369 0.031146Z" fill="#342626"/>
<path d="M11.7036 44.8911C12.2859 45.3715 12.7534 46.062 13.2179 46.6714C9.59269 49.4226 8.99203 48.7807 4.65467 47.826C3.78548 47.6348 2.71809 48.4005 2.77814 49.4375C4.71993 49.6986 5.17331 49.6019 6.73871 50.7906C11.2455 50.213 13.2972 49.7155 17.0568 47.0601C17.6162 47.5463 18.1982 48.1082 18.746 48.6163C14.5512 52.0201 11.0099 52.8009 5.73871 53.1213C3.42306 50.7431 1.53022 52.5335 2.45551 54.4302C2.59867 54.5239 2.77196 54.6372 2.97539 54.7704C8.29343 54.6199 16.9309 54.7746 21.8907 54.2502C27.204 53.538 30.147 52.8534 34.9794 50.6679C35.4762 51.2118 36.0097 51.8681 36.4942 52.4355C27.3907 57.7596 11.387 56.9823 0.740043 57.1245C-0.394339 54.3421 0.0840051 54.0551 0.193781 51.2393C0.43559 45.0366 3.83019 44.3848 8.90102 46.7347C9.89888 46.2244 10.7917 45.544 11.7036 44.8911Z" fill="#342626"/>
<path d="M73.8148 35.1584C74.3499 35.2325 74.4274 35.4149 74.6434 35.8542C74.3855 38.0727 71.6666 38.2604 70.4972 40.3824C68.5809 43.8585 70.9197 46.2209 72.235 49.2178C72.8261 50.5649 69.1322 51.3664 69.4109 53.6233C71.003 56.4171 73.3787 54.5424 75.3876 55.6097C75.8928 56.3866 75.7012 56.4719 75.6704 57.5924C73.5325 57.6256 71.286 57.7768 69.3757 56.6707C65.5808 54.4734 66.8047 51.5466 69.5504 49.2167C66.06 43.5884 67.1666 37.4283 73.8148 35.1584Z" fill="#342626"/>
<path d="M51.5105 13.7964L51.7819 14.1838C51.9155 15.4314 52.7225 21.2594 52.2303 21.9396C51.4466 22.0088 51.2381 22.0532 50.4556 21.8152C49.9606 21.1126 50.066 20.3797 49.9927 19.4163C48.8762 20.6841 47.5561 22.4863 46.4981 23.8517L46.3612 24.0058C45.6407 24.3156 44.1591 24.1825 43.304 24.1629C45.7625 20.9243 48.8844 16.8352 51.5105 13.7964Z" fill="#342626"/>
<path d="M31.027 13.7856C31.4401 14.5322 32.217 21.3762 31.7057 21.917C31.0198 21.9842 30.4687 22.1291 29.8904 21.813C29.4674 21.1586 29.5553 20.1011 29.5408 19.2753L26.0739 23.8386L25.8984 24.0432C25.1757 24.3194 23.7048 24.1913 22.871 24.1656C25.1939 21.0325 28.51 16.6992 31.027 13.7856Z" fill="#342626"/>
<path d="M21.7362 39.678L17.0456 39.2179L16.877 40.9367L15.1319 40.7655L15.4479 37.5444L16.1892 37.6171C16.3963 37.3063 16.5743 36.9771 16.7232 36.6296C16.8769 36.2782 17.0068 35.9223 17.1128 35.5617C17.2188 35.2012 17.3043 34.8475 17.3692 34.5007C17.4346 34.1494 17.4891 33.8192 17.5326 33.5099C17.5762 33.2007 17.6081 32.9212 17.6281 32.6715C17.6526 32.4222 17.6747 32.219 17.6945 32.062L23.2839 32.6103L22.7299 38.2587L23.6286 38.3469L23.3126 41.568L21.5676 41.3968L21.7362 39.678ZM18.4105 37.1197C18.3069 37.3656 18.1875 37.5924 18.0523 37.7999L20.8798 38.0773L21.2859 33.9377L19.1604 33.7292C19.1475 33.8604 19.1294 34.022 19.1062 34.214C19.0873 34.4065 19.0575 34.6199 19.0169 34.8544C18.981 35.0849 18.9349 35.3298 18.8786 35.5892C18.8266 35.8491 18.7593 36.1074 18.6767 36.3642C18.5985 36.6215 18.5097 36.8733 18.4105 37.1197Z" fill="#342626"/>
<path d="M25.9759 39.8711C25.5296 39.6675 25.1517 39.3914 24.8421 39.0427C24.5369 38.6942 24.3063 38.2844 24.1502 37.8132C23.9985 37.3422 23.9316 36.83 23.9497 36.2765C23.9678 35.7231 24.0678 35.2163 24.2499 34.7562C24.4364 34.2962 24.6932 33.9045 25.0204 33.581C25.352 33.2533 25.7471 33.0024 26.2057 32.8283C26.6643 32.6542 27.1768 32.5764 27.7434 32.5949C28.3188 32.6136 28.8296 32.7248 29.2758 32.9285C29.7265 33.1322 30.1022 33.4083 30.403 33.7567C30.7083 34.1008 30.9369 34.5084 31.0886 34.9794C31.2403 35.4504 31.3071 35.9626 31.289 36.5161C31.271 37.0695 31.1709 37.5762 30.9888 38.0364C30.8067 38.4965 30.552 38.8905 30.2248 39.2184C29.9019 39.5464 29.5089 39.7974 29.046 39.9713C28.5874 40.1454 28.0705 40.2231 27.4951 40.2043C26.9285 40.1858 26.4221 40.0748 25.9759 39.8711ZM25.9592 37.1467C26.0076 37.4165 26.0964 37.6591 26.2257 37.8743C26.3551 38.0852 26.5275 38.2579 26.743 38.3925C26.9585 38.527 27.2265 38.5995 27.5471 38.61C27.8809 38.6209 28.1596 38.5684 28.3833 38.4526C28.6114 38.3325 28.7947 38.1736 28.933 37.9759C29.0716 37.7737 29.1715 37.5418 29.2328 37.28C29.2986 37.0139 29.3362 36.7381 29.3455 36.4526C29.3547 36.1715 29.3351 35.8961 29.2867 35.6263C29.2428 35.3567 29.1582 35.1187 29.033 34.9123C28.908 34.7016 28.7355 34.5311 28.5155 34.4008C28.3 34.2662 28.0254 34.1935 27.6916 34.1826C27.371 34.1722 27.0988 34.227 26.875 34.3472C26.6513 34.4675 26.4678 34.6307 26.3248 34.8371C26.1819 35.0391 26.0754 35.2731 26.0051 35.539C25.9394 35.8007 25.9021 36.0676 25.8932 36.34C25.8844 36.6123 25.9064 36.8812 25.9592 37.1467Z" fill="#342626"/>
<path d="M36.3816 30.1906C36.4788 30.1272 36.5387 30.0639 36.561 30.0008L38.2451 29.8931C38.273 30.2612 38.2288 30.5679 38.1124 30.8131C37.9957 31.054 37.8323 31.2538 37.6223 31.4125C37.4164 31.5666 37.173 31.6857 36.8921 31.7697C36.6154 31.849 36.3286 31.9092 36.0318 31.9502C35.8268 31.9809 35.6159 32.023 35.3992 32.0765C35.1821 32.1256 34.9709 32.1964 34.7654 32.2888C34.5597 32.3768 34.3666 32.4904 34.1861 32.6297C34.0054 32.7645 33.8464 32.9288 33.7091 33.1226C33.5717 33.3163 33.4629 33.5434 33.3827 33.804C33.3025 34.0645 33.2624 34.3665 33.2623 34.71C33.3179 34.4774 33.416 34.2554 33.5566 34.0438C33.6969 33.8279 33.8763 33.6381 34.0948 33.4744C34.3175 33.306 34.5773 33.1683 34.8743 33.0612C35.171 32.9498 35.5035 32.8823 35.8719 32.8587C36.3631 32.8273 36.8114 32.8823 37.2167 33.0237C37.6218 33.1608 37.972 33.3695 38.2674 33.6501C38.5628 33.9306 38.7963 34.2768 38.9679 34.6886C39.1439 35.1 39.2484 35.5623 39.2812 36.0754C39.3176 36.6456 39.2652 37.1685 39.1239 37.6443C38.987 38.1199 38.7713 38.5344 38.4769 38.8879C38.1865 39.2367 37.8214 39.5177 37.3815 39.7307C36.9412 39.9394 36.4383 40.0619 35.8725 40.0981C35.048 40.1508 34.3553 40.0256 33.7943 39.7224C33.2332 39.4192 32.7836 38.8953 32.4454 38.1507C32.3323 37.8981 32.2402 37.6288 32.1691 37.3427C32.098 37.0566 32.0411 36.7873 31.9985 36.5346C31.9603 36.2816 31.933 36.061 31.9166 35.8727C31.9001 35.6844 31.8899 35.5595 31.886 35.4981C31.8423 34.814 31.8812 34.184 32.0029 33.6082C32.1243 33.0279 32.3426 32.5164 32.6578 32.0735C32.9773 31.6303 33.3985 31.2621 33.9214 30.9689C34.4487 30.6753 35.096 30.4688 35.8634 30.3493C36.1075 30.3116 36.2803 30.2588 36.3816 30.1906ZM35.5656 34.2654C35.2454 34.2859 34.9748 34.3583 34.7538 34.4825C34.5369 34.602 34.3619 34.7585 34.229 34.952C34.096 35.1454 34.0045 35.3671 33.9544 35.6169C33.9041 35.8623 33.8876 36.1209 33.905 36.3928C33.9224 36.6647 33.9681 36.9326 34.0423 37.1965C34.1205 37.4557 34.2343 37.6862 34.3837 37.888C34.5328 38.0855 34.7211 38.2408 34.9485 38.3539C35.1759 38.4671 35.4497 38.5134 35.7699 38.4929C36.1076 38.4713 36.3821 38.3921 36.5935 38.2553C36.8091 38.1138 36.9762 37.938 37.0948 37.7279C37.2132 37.5133 37.2903 37.2728 37.3261 37.0063C37.3616 36.7354 37.3703 36.4575 37.352 36.1724C37.3341 35.8917 37.2866 35.6305 37.2095 35.3889C37.1324 35.1472 37.0223 34.9407 36.8792 34.7693C36.7359 34.5935 36.5557 34.4619 36.3387 34.3745C36.1215 34.2827 35.8638 34.2464 35.5656 34.2654Z" fill="#342626"/>
<path d="M42.2951 31.9441C42.4446 31.8127 42.6162 31.7039 42.81 31.6177C43.0082 31.5307 43.2367 31.4625 43.4957 31.4131C43.7116 31.372 43.9388 31.3555 44.1775 31.3636C44.4162 31.3718 44.6545 31.4136 44.8926 31.489C45.1341 31.5592 45.3697 31.6687 45.5994 31.8172C45.8282 31.9615 46.0415 32.1534 46.2394 32.3931C46.4372 32.6327 46.6134 32.9235 46.7681 33.2653C46.9219 33.6028 47.0424 34.0003 47.1297 34.4579C47.2384 35.0277 47.2754 35.562 47.2407 36.0607C47.2104 36.5586 47.1026 37.0019 46.9173 37.3907C46.7362 37.7786 46.4739 38.1038 46.1303 38.3662C45.7909 38.6277 45.3666 38.8071 44.8572 38.9042C44.6802 38.938 44.4978 38.9549 44.3099 38.9549C44.122 38.955 43.9339 38.9304 43.7456 38.8813C43.5573 38.8323 43.3722 38.7535 43.1905 38.645C43.0122 38.5313 42.8447 38.3799 42.6878 38.1906L42.6619 38.1955L43.3497 41.8021L41.5172 42.1516L39.6502 32.3612L41.3985 32.0278L41.5911 33.0379L41.617 33.033C41.7018 32.7976 41.7989 32.5912 41.9083 32.4138C42.0168 32.232 42.1457 32.0755 42.2951 31.9441ZM43.0015 37.2315C43.1403 37.3258 43.2987 37.3941 43.4767 37.4362C43.6539 37.4739 43.8547 37.4714 44.0792 37.4286C44.3037 37.3858 44.4914 37.3142 44.6422 37.2139C44.7923 37.1092 44.9144 36.9875 45.0088 36.8487C45.1031 36.7099 45.1725 36.558 45.2171 36.3929C45.266 36.227 45.2968 36.0601 45.3095 35.8922C45.3214 35.7199 45.319 35.5548 45.3023 35.3969C45.2891 35.2339 45.2698 35.0855 45.2442 34.9517C45.1973 34.7056 45.1219 34.4628 45.0181 34.2231C44.9142 33.9834 44.7807 33.7763 44.6177 33.6016C44.459 33.426 44.2662 33.295 44.0394 33.2085C43.8127 33.122 43.5547 33.1064 43.2655 33.1615C42.9719 33.2175 42.7357 33.3274 42.5566 33.4913C42.3819 33.6544 42.2509 33.8471 42.1636 34.0696C42.0806 34.2912 42.0349 34.5325 42.0266 34.7936C42.0182 35.0547 42.0375 35.3082 42.0844 35.5543C42.1099 35.6881 42.1444 35.8336 42.1878 35.9909C42.2347 36.143 42.2954 36.297 42.3698 36.4528C42.4434 36.6042 42.5313 36.7485 42.6335 36.8856C42.7401 37.0219 42.8627 37.1372 43.0015 37.2315Z" fill="#342626"/>
<path d="M50.8114 37.1161C50.3224 37.0774 49.8729 36.9472 49.4627 36.7255C49.0567 36.5024 48.6997 36.1962 48.3919 35.8068C48.0882 35.4161 47.8502 34.9577 47.6779 34.4315C47.5055 33.9052 47.4262 33.3948 47.4399 32.9002C47.4578 32.4041 47.5651 31.9482 47.7619 31.5323C47.9614 31.1109 48.2469 30.74 48.6182 30.4195C48.9896 30.099 49.4446 29.8506 49.9834 29.6742C50.5304 29.495 51.0485 29.4247 51.5374 29.4634C52.0306 29.5008 52.4781 29.6317 52.8799 29.8561C53.2845 30.0751 53.6387 30.3799 53.9424 30.7706C54.2461 31.1613 54.4841 31.6198 54.6564 32.146C54.8287 32.6722 54.908 33.1826 54.8943 33.6773C54.8806 34.1719 54.7761 34.6293 54.5807 35.0493C54.3895 35.468 54.1061 35.8383 53.7306 36.1601C53.3593 36.4805 52.9001 36.7304 52.353 36.9095C51.8142 37.086 51.3004 37.1548 50.8114 37.1161ZM49.8639 34.5618C50.0016 34.7987 50.168 34.9963 50.3631 35.1543C50.5569 35.3082 50.778 35.4115 51.0265 35.4642C51.2749 35.517 51.5516 35.4934 51.8565 35.3936C52.1739 35.2896 52.4178 35.145 52.5883 34.9596C52.7617 34.7688 52.8795 34.5568 52.9419 34.3236C53.0029 34.0863 53.0174 33.8342 52.9855 33.5672C52.9563 33.2946 52.8973 33.0226 52.8084 32.7512C52.7209 32.4839 52.6082 32.2318 52.4705 31.9948C52.337 31.7565 52.1761 31.5618 51.9879 31.4107C51.7983 31.2554 51.5779 31.1542 51.3266 31.107C51.0781 31.0543 50.7952 31.0799 50.4778 31.1839C50.1729 31.2837 49.9359 31.4284 49.7668 31.6179C49.5976 31.8074 49.4811 32.0236 49.4173 32.2664C49.3521 32.5051 49.332 32.7614 49.357 33.0353C49.3848 33.3037 49.4411 33.5673 49.5259 33.8262C49.6107 34.0852 49.7233 34.3303 49.8639 34.5618Z" fill="#342626"/>
<path d="M63.6738 32.0405L61.4536 33.0341L58.2896 31.1281L57.9134 32.1269L58.8424 34.2027L57.1396 34.9648L54.2046 28.4065L55.9073 27.6445L57.0221 30.1354L58.3622 26.5459L60.6245 25.5334L59.1367 29.4707L63.6738 32.0405Z" fill="#342626"/>
<path d="M65.6826 30.8414C65.1945 30.8898 64.729 30.8411 64.2861 30.6954C63.847 30.5475 63.4416 30.3092 63.0698 29.9805C62.7018 29.6496 62.3865 29.2404 62.1238 28.753C61.8612 28.2655 61.6929 27.7771 61.619 27.2878C61.5489 26.7965 61.5739 26.3287 61.694 25.8846C61.8159 25.4346 62.0313 25.019 62.3402 24.638C62.649 24.2569 63.053 23.9319 63.552 23.663C64.0588 23.39 64.5563 23.2293 65.0444 23.1809C65.5364 23.1305 65.9999 23.1802 66.4351 23.3301C66.8721 23.474 67.2746 23.7114 67.6425 24.0423C68.0105 24.3732 68.3258 24.7824 68.5884 25.2698C68.8511 25.7573 69.0194 26.2456 69.0933 26.7349C69.1673 27.2242 69.1452 27.6929 69.0272 28.1408C68.913 28.5867 68.6996 29.0012 68.3869 29.3844C68.078 29.7654 67.6702 30.0925 67.1634 30.3656C66.6643 30.6345 66.1707 30.7931 65.6826 30.8414ZM64.2984 28.4948C64.4759 28.7037 64.6746 28.8687 64.8946 28.9897C65.1125 29.107 65.3484 29.1695 65.6023 29.1775C65.8562 29.1855 66.1243 29.1134 66.4067 28.9612C66.7007 28.8028 66.9153 28.6173 67.0504 28.4048C67.1872 28.1863 67.2657 27.9568 67.2859 27.7163C67.304 27.4719 67.2737 27.2212 67.1951 26.964C67.1182 26.7009 67.012 26.4437 66.8765 26.1922C66.7431 25.9446 66.5877 25.7163 66.4103 25.5075C66.2367 25.2965 66.0439 25.1333 65.832 25.0178C65.6179 24.8986 65.3831 24.8379 65.1274 24.8359C64.8735 24.8279 64.5996 24.9031 64.3056 25.0616C64.0232 25.2137 63.8155 25.398 63.6825 25.6144C63.5495 25.8309 63.4731 26.0642 63.4532 26.3145C63.4312 26.561 63.4567 26.8168 63.5297 27.082C63.6045 27.3412 63.7065 27.5907 63.8357 27.8306C63.965 28.0704 64.1192 28.2918 64.2984 28.4948Z" fill="#342626"/>
<path d="M72.5344 18.6982L73.3139 19.9986L71.4482 21.117L74.3629 25.9792L72.7686 26.935L69.8538 22.0728L67.9881 23.1912L67.2086 21.8909L72.5344 18.6982Z" fill="#342626"/>
</svg>
