<svg width="24" height="24" viewBox="0 0 24 24" fill="none" xmlns="http://www.w3.org/2000/svg">
<path fill-rule="evenodd" clip-rule="evenodd" d="M12.1989 23.7134C9.85491 23.7134 8.76562 23.3712 6.87222 22.0024C5.67456 23.5423 1.88203 24.7457 1.71663 22.6868C1.71663 21.1413 1.37444 19.8353 0.986625 18.4095C0.524688 16.653 0 14.6968 0 11.8624C0 5.09284 5.55481 0 12.1362 0C18.7232 0 23.8845 5.34378 23.8845 11.9251C23.9066 18.4047 18.6784 23.6788 12.1989 23.7134ZM12.2958 5.85134C9.09072 5.68597 6.59275 7.90447 6.03956 11.3833C5.58331 14.2634 6.39316 17.7708 7.08322 17.9533C7.414 18.0331 8.24666 17.3602 8.76562 16.8412C9.62379 17.434 10.6231 17.7901 11.6628 17.8734C14.9838 18.0332 17.8216 15.5049 18.0445 12.1875C18.1743 8.86306 15.6173 6.04731 12.2958 5.85706V5.85134Z" fill="#342626"/>
</svg>
