<svg width="552" height="381" viewBox="0 0 552 381" fill="none" xmlns="http://www.w3.org/2000/svg">
<path d="M26.8242 155.815L36.9498 122.056C62.9963 131.204 89.5641 140.853 115.816 149.17C103.328 128.113 90.683 104 78.7633 82.3916L109.371 66.0237C120.243 86.8649 131.267 107.619 142.472 128.296C148.7 107.083 155.759 85.3993 162.381 64.2494C173.801 67.5942 185.653 71.5324 197.051 75.1195C189.383 99.215 181.975 123.393 174.802 147.641C195.113 136.466 215.549 125.518 236.095 114.795C240.191 123.12 244.195 131.491 248.092 139.902C229.29 153.109 210.331 166.09 191.216 178.838L247.991 188.713L242.335 206.478L236.179 227.218C215.84 217.088 195.298 207.393 174.552 198.136C188.107 223.997 203.412 248.936 216.362 275.194C205.592 280.994 194.861 286.877 184.171 292.841C175.689 271.608 165.503 245.92 155.551 225.679C148.323 244.573 141.034 268.781 134.733 288.253L102.804 278.482C109.535 255.287 115.753 231.946 121.455 208.476C100.219 221.504 77.9772 234.233 56.4424 246.868C52.2496 236.997 46.0543 225.049 41.2788 215.224L100.896 180.379L26.8242 155.815Z" fill="#FDF1E3"/>
<path d="M299.12 161.596C303.064 157.204 330.719 155.005 338.651 154.05L366.19 306.775L366.114 307.264C362.1 310.628 328.536 311.853 320.603 312.369C313.772 262.066 306.611 211.807 299.12 161.596Z" fill="#FDF1E3"/>
<path d="M410.55 179.018L411.902 177.22C418.539 176.919 470.946 187.016 481.945 188.954L477.789 210.499C466.66 211.237 418.918 205.698 406.146 204.427L410.55 179.018Z" fill="#FDF1E3"/>
<path d="M420.618 115.244C424.652 108.651 432.399 98.2519 437.029 91.6761C454.317 106.839 471.854 121.739 489.598 136.357C490.342 137.188 491.237 139.153 491.799 140.233C490.472 146.104 485.045 152.199 481.237 157.169C461.244 142.888 441.038 128.912 420.618 115.244Z" fill="#FDF1E3"/>
<path d="M496.521 57.4314L497.858 55.0212C504.239 51.6829 516.019 48.9424 523.341 46.9618L534.215 115.367L533.832 118.648C530.006 122.13 522.271 123.673 517.034 125.111L496.521 57.4314Z" fill="#FDF1E3"/>
</svg>
