<svg width="529" height="230" viewBox="0 0 529 230" fill="none" xmlns="http://www.w3.org/2000/svg">
<path fill-rule="evenodd" clip-rule="evenodd" d="M522.739 142.936C516.235 144.469 515.213 144.837 508.973 142.664C502.04 133.797 503.088 117.887 500.828 106.855C498.026 93.1779 489.624 80.4189 477.623 73.1135C410.958 32.5362 379.887 126.822 361 130.541C357.673 131.197 357.312 131.539 355.072 128.843C350.005 122.749 346.673 113.607 343.111 106.507C331.097 82.5592 317.343 62.4829 295.082 46.8318C266.266 26.5715 231.986 19.3968 197.358 25.5964C162.106 31.7414 130.847 51.8892 110.689 81.4516C85.2578 119.207 85.5021 154.692 93.5679 196.995C120.264 192.088 147.653 188.783 168.147 211.155C192.782 238.031 175.005 286.488 135.017 279.191C110.104 274.64 93.4006 250.873 80.5463 230.84C67.1899 240.111 61.9728 244.202 50.8111 255.951C29.2479 282.325 29.2454 313.175 14.3051 324.969C7.54274 326.799 10.4091 326.898 3.59569 324.044C-0.692769 316.739 -0.774117 315.32 1.41121 306.111C12.9142 257.559 31.9411 234.283 71.7355 208.339C64.17 175.643 61.2247 150.485 69.0598 117.201C93.4301 13.9052 222.131 -34.5408 308.34 27.536C333.037 45.3187 347.8 63.4303 363.106 89.5647C378.033 71.9043 392.27 56.6344 414.21 47.345C434.18 38.8678 456.716 38.7752 476.751 47.0854C497.702 55.5084 514.441 71.9163 523.273 92.6933C530.776 110.8 529.789 125.336 522.739 142.936ZM149.719 255.887C169.14 226.213 138.466 213.918 112.98 218.511L106.974 220.556C104.291 234.001 128.588 254.06 140.938 255.624C143.849 255.99 146.778 256.083 149.719 255.887Z" fill="#FDF1E3"/>
</svg>
